<svg width="20" height="20" viewBox="0 0 20 20" fill="none" xmlns="http://www.w3.org/2000/svg">
<path d="M8.4988 13.499L11.9988 13.499" stroke="#757391" stroke-width="1.5" stroke-linecap="round" stroke-linejoin="round"/>
<path d="M8.24878 13.374C8.24878 12.4766 7.52126 11.749 6.6238 11.749C5.72633 11.749 4.99879 12.4766 4.99879 13.374C4.99879 14.2715 5.72633 14.999 6.6238 14.999C7.52126 14.999 8.24878 14.2715 8.24878 13.374Z" stroke="#757391" stroke-width="1.5" stroke-linecap="round" stroke-linejoin="round"/>
<path d="M14.9988 13.499C14.9988 12.6706 14.3272 11.999 13.4988 11.999C12.6704 11.999 11.9988 12.6706 11.9988 13.499C11.9988 14.3275 12.6704 14.999 13.4988 14.999C14.3272 14.999 14.9988 14.3275 14.9988 13.499Z" stroke="#757391" stroke-width="1.5" stroke-linecap="round" stroke-linejoin="round"/>
<path d="M14.9988 6.49903C14.9988 5.67061 14.3272 4.99904 13.4988 4.99904C12.6704 4.99904 11.9988 5.67061 11.9988 6.49903C11.9988 7.32746 12.6704 7.99902 13.4988 7.99902C14.3272 7.99902 14.9988 7.32746 14.9988 6.49903Z" stroke="#757391" stroke-width="1.5" stroke-linecap="round" stroke-linejoin="round"/>
<path d="M8.4988 13.4326C9.3738 13.2076 10.0238 12.4076 10.0154 11.466L10.0071 9.7493C9.9988 8.44096 10.8405 7.32428 12.0155 6.91594" stroke="#757391" stroke-width="1.5" stroke-linecap="round" stroke-linejoin="round"/>
<path d="M18.3321 12.4997L18.3321 7.49967C18.3321 3.33301 16.6654 1.66634 12.4988 1.66634L7.49878 1.66634C3.33212 1.66634 1.66545 3.33301 1.66545 7.49967L1.66545 12.4997C1.66545 16.6663 3.33212 18.333 7.49878 18.333L12.4988 18.333C16.6655 18.333 18.3321 16.6663 18.3321 12.4997Z" stroke="#757391" stroke-width="1.5" stroke-linecap="round" stroke-linejoin="round"/>
</svg>
