<svg width="55" height="114" viewBox="0 0 55 114" fill="none" xmlns="http://www.w3.org/2000/svg">
<mask id="path-1-inside-1_5239_27888" fill="white">
<path fill-rule="evenodd" clip-rule="evenodd" d="M0.00239563 14.638L23.2925 0H31.0559V69.862L0.00239563 87V29.276V14.638ZM23.2903 114H7.76356H0.00019455V95.7025L54.3438 66.4265L23.2903 114Z"/>
</mask>
<path d="M23.2925 0L22.7604 -0.846661L23.0043 -1H23.2925V0ZM0.00239563 14.638H-0.997604V14.0854L-0.529736 13.7913L0.00239563 14.638ZM31.0559 0V-1H32.0559V0H31.0559ZM31.0559 69.862H32.0559V70.4523L31.539 70.7375L31.0559 69.862ZM0.00239563 87L0.48558 87.8755L-0.997604 88.6941V87H0.00239563ZM23.2903 114L24.1277 114.547L23.8317 115H23.2903V114ZM0.00019455 114V115H-0.999805V114H0.00019455ZM0.00019455 95.7025H-0.999805V95.1053L-0.474083 94.8221L0.00019455 95.7025ZM54.3438 66.4265L53.8695 65.5461L55.1811 66.9731L54.3438 66.4265ZM23.8246 0.846661L0.534527 15.4847L-0.529736 13.7913L22.7604 -0.846661L23.8246 0.846661ZM31.0559 1H23.2925V-1H31.0559V1ZM30.0559 69.862V0H32.0559V69.862H30.0559ZM-0.480789 86.1245L30.5727 68.9865L31.539 70.7375L0.48558 87.8755L-0.480789 86.1245ZM1.0024 29.276V87H-0.997604V29.276H1.0024ZM1.0024 14.638V29.276H-0.997604V14.638H1.0024ZM7.76356 113H23.2903V115H7.76356V113ZM0.00019455 113H7.76356V115H0.00019455V113ZM1.00019 95.7025V114H-0.999805V95.7025H1.00019ZM54.818 67.3069L0.474472 96.5829L-0.474083 94.8221L53.8695 65.5461L54.818 67.3069ZM22.4529 113.453L53.5064 65.8799L55.1811 66.9731L24.1277 114.547L22.4529 113.453Z" fill="currentColor" mask="url(#path-1-inside-1_5239_27888)"/>
</svg>
