<svg width="234" height="447" viewBox="0 0 234 447" fill="none" xmlns="http://www.w3.org/2000/svg">
<mask id="path-1-inside-1_5489_80530" fill="white">
<path fill-rule="evenodd" clip-rule="evenodd" d="M0.00895691 57.3141L100.054 0H133.402V273.54L0.00895691 340.642V114.628V57.3141ZM100.045 446.359H33.3483H-6.10352e-05V374.717L233.438 260.089L100.045 446.359Z"/>
</mask>
<path d="M100.054 0L99.5569 -0.867699L99.7878 -1H100.054V0ZM0.00895691 57.3141H-0.991043V56.7345L-0.488129 56.4464L0.00895691 57.3141ZM133.402 0V-1H134.402V0H133.402ZM133.402 273.54H134.402V274.156L133.852 274.433L133.402 273.54ZM0.00895691 340.642L0.458344 341.536L-0.991043 342.265V340.642H0.00895691ZM100.045 446.359L100.858 446.941L100.559 447.359H100.045V446.359ZM-6.10352e-05 446.359V447.359H-1.00006V446.359H-6.10352e-05ZM-6.10352e-05 374.717H-1.00006V374.094L-0.440826 373.819L-6.10352e-05 374.717ZM233.438 260.089L232.997 259.191L234.251 260.671L233.438 260.089ZM100.551 0.867699L0.506058 58.1818L-0.488129 56.4464L99.5569 -0.867699L100.551 0.867699ZM133.402 1H100.054V-1H133.402V1ZM132.402 273.54V0H134.402V273.54H132.402ZM-0.44043 339.749L132.953 272.646L133.852 274.433L0.458344 341.536L-0.44043 339.749ZM1.00896 114.628V340.642H-0.991043V114.628H1.00896ZM1.00896 57.3141V114.628H-0.991043V57.3141H1.00896ZM33.3483 445.359H100.045V447.359H33.3483V445.359ZM-6.10352e-05 445.359H33.3483V447.359H-6.10352e-05V445.359ZM0.999939 374.717V446.359H-1.00006V374.717H0.999939ZM233.879 260.986L0.44072 375.614L-0.440826 373.819L232.997 259.191L233.879 260.986ZM99.2319 445.777L232.625 259.506L234.251 260.671L100.858 446.941L99.2319 445.777Z" fill="#757391" fill-opacity="0.2" mask="url(#path-1-inside-1_5489_80530)"/>
</svg>
