<svg width="53" height="64" viewBox="0 0 53 64" fill="none" xmlns="http://www.w3.org/2000/svg">
<path fill-rule="evenodd" clip-rule="evenodd" d="M45.8957 37.5151L26.4829 56.928L7.07012 37.5151L-0.000951359 37.5151L22.9474 60.4635L26.4829 63.999L30.0185 60.4635L52.9668 37.5152L45.8957 37.5151ZM45.8935 26.4807L52.9646 26.4807L30.0185 3.53456L26.4829 -0.000975063L22.9474 3.53456L0.00129265 26.4807L7.07236 26.4807L26.4829 7.07009L45.8935 26.4807Z" fill="currentColor"/>
<rect x="48.4844" y="31.999" width="31.2334" height="31.2334" transform="rotate(135 48.4844 31.999)" fill="currentColor"/>
<path d="M33.4921 27.6382V36.1382C33.4921 39.5382 32.6488 40.3882 29.2758 40.3882H24.2163C20.8433 40.3882 20 39.5382 20 36.1382V27.6382C20 24.2382 20.8433 23.3882 24.2163 23.3882H29.2758C32.6488 23.3882 33.4921 24.2382 33.4921 27.6382Z" stroke="white" stroke-width="2" stroke-linecap="round" stroke-linejoin="round"/>
<path d="M28.4316 26.3633H25.0586" stroke="white" stroke-width="2" stroke-linecap="round" stroke-linejoin="round"/>
</svg>
