<svg width="64" height="53" viewBox="0 0 64 53" fill="none" xmlns="http://www.w3.org/2000/svg">
<path fill-rule="evenodd" clip-rule="evenodd" d="M26.4839 45.8967L7.07107 26.4839L26.4839 7.0711L26.4839 3.39905e-05L3.53554 22.9484L3.47294e-06 26.4839L3.53554 30.0194L26.4839 52.9678L26.4839 45.8967ZM37.5184 45.8945L37.5184 52.9655L60.4645 30.0194L64 26.4839L60.4645 22.9484L37.5184 0.00227085L37.5184 7.07334L56.9289 26.4839L37.5184 45.8945Z" fill="currentColor"/>
<rect x="32" y="48.4849" width="31.2334" height="31.2334" transform="rotate(-135 32 48.4849)" fill="currentColor"/>
<path d="M26.9874 19.2749H35.9775C38.8583 19.2749 39.5784 19.9951 39.5784 22.8677V27.9899C39.5784 30.8707 38.8583 31.5828 35.9856 31.5828H26.9874C24.1147 31.5909 23.3945 30.8707 23.3945 27.998V22.8677C23.3945 19.9951 24.1147 19.2749 26.9874 19.2749Z" stroke="white" stroke-width="2" stroke-linecap="round" stroke-linejoin="round"/>
<path d="M31.4863 31.5913V35.4593" stroke="white" stroke-width="2" stroke-linecap="round" stroke-linejoin="round"/>
<path d="M27.8438 35.459H35.1265" stroke="white" stroke-width="2" stroke-linecap="round" stroke-linejoin="round"/>
</svg>
