<svg width="64" height="53" viewBox="0 0 64 53" fill="none" xmlns="http://www.w3.org/2000/svg">
<path fill-rule="evenodd" clip-rule="evenodd" d="M26.4839 45.8967L7.07107 26.4839L26.4839 7.07109L26.4839 2.63611e-05L3.53554 22.9484L3.47294e-06 26.4839L3.53554 30.0194L26.4839 52.9678L26.4839 45.8967ZM37.5184 45.8945L37.5184 52.9655L60.4645 30.0194L64 26.4839L60.4645 22.9484L37.5184 0.00227085L37.5184 7.07334L56.9289 26.4839L37.5184 45.8945Z" fill="#2175FF"/>
<rect x="32" y="48.4849" width="31.2334" height="31.2334" transform="rotate(-135 32 48.4849)" fill="#2175FF"/>
<path d="M31.5 34.4166C35.8723 34.4166 39.4167 30.8722 39.4167 26.5C39.4167 22.1277 35.8723 18.5833 31.5 18.5833C27.1278 18.5833 23.5834 22.1277 23.5834 26.5C23.5834 30.8722 27.1278 34.4166 31.5 34.4166Z" stroke="white" stroke-width="1.5" stroke-linecap="round" stroke-linejoin="round"/>
<path d="M28.3333 19.375H29.125C27.5812 23.9983 27.5812 29.0017 29.125 33.625H28.3333" stroke="white" stroke-width="1.5" stroke-linecap="round" stroke-linejoin="round"/>
<path d="M33.875 19.375C35.4188 23.9983 35.4188 29.0017 33.875 33.625" stroke="white" stroke-width="1.5" stroke-linecap="round" stroke-linejoin="round"/>
<path d="M24.375 29.6667V28.875C28.9983 30.4188 34.0017 30.4188 38.625 28.875V29.6667" stroke="white" stroke-width="1.5" stroke-linecap="round" stroke-linejoin="round"/>
<path d="M24.375 24.125C28.9983 22.5812 34.0017 22.5812 38.625 24.125" stroke="white" stroke-width="1.5" stroke-linecap="round" stroke-linejoin="round"/>
</svg>
