<svg width="64" height="53" viewBox="0 0 64 53" fill="none" xmlns="http://www.w3.org/2000/svg">
<path fill-rule="evenodd" clip-rule="evenodd" d="M26.4839 45.8967L7.07107 26.4839L26.4839 7.07109L26.4839 2.63611e-05L3.53554 22.9484L3.47294e-06 26.4839L3.53554 30.0194L26.4839 52.9678L26.4839 45.8967ZM37.5184 45.8945L37.5184 52.9655L60.4645 30.0194L64 26.4839L60.4645 22.9484L37.5184 0.00227085L37.5184 7.07334L56.9289 26.4839L37.5184 45.8945Z" fill="#2175FF"/>
<rect x="32" y="48.4849" width="31.2334" height="31.2334" transform="rotate(-135 32 48.4849)" fill="#2175FF"/>
<path d="M37.3092 18.0167H29.7338V28.2498H39.9619V20.6645C39.9619 19.2116 38.7678 18.0167 37.3175 18.0167C37.315 18.0167 37.3117 18.0167 37.3092 18.0167Z" fill="white"/>
<path d="M27.3721 18.0167H26.0666C24.6164 18.0167 23.4222 19.2124 23.4222 20.6645V21.9717H27.3721V18.0167Z" fill="white"/>
<path d="M23.4222 24.3364H27.3721V28.2914H23.4222V24.3364Z" fill="white"/>
<path d="M36.0453 34.5778H37.3508C38.8019 34.5778 39.9952 33.3821 39.9952 31.93C39.9952 31.9275 39.9952 31.9242 39.9952 31.9217V30.6561H36.0453V34.5778Z" fill="white"/>
<path d="M29.7338 30.6561H33.6836V34.6111H29.7338V30.6561Z" fill="white"/>
<path d="M23.4222 30.6561V31.9633C23.4222 33.4154 24.6164 34.6111 26.0666 34.6111H27.3721V30.6561H23.4222Z" fill="white"/>
</svg>
