<svg width="20" height="20" viewBox="0 0 20 20" fill="none" xmlns="http://www.w3.org/2000/svg">
<path d="M13.3337 10.7498V14.2498C13.3337 17.1665 12.167 18.3332 9.25033 18.3332H5.75033C2.83366 18.3332 1.66699 17.1665 1.66699 14.2498V10.7498C1.66699 7.83317 2.83366 6.6665 5.75033 6.6665H9.25033C12.167 6.6665 13.3337 7.83317 13.3337 10.7498Z" stroke="currentColor" stroke-width="1.5" stroke-linecap="round" stroke-linejoin="round"/>
<path d="M18.3337 5.74984V9.24984C18.3337 12.1665 17.167 13.3332 14.2503 13.3332H13.3337V10.7498C13.3337 7.83317 12.167 6.6665 9.25033 6.6665H6.66699V5.74984C6.66699 2.83317 7.83366 1.6665 10.7503 1.6665H14.2503C17.167 1.6665 18.3337 2.83317 18.3337 5.74984Z" stroke="currentColor" stroke-width="1.5" stroke-linecap="round" stroke-linejoin="round"/>
</svg>
