<svg width="35" height="71" viewBox="0 0 35 71" fill="none" xmlns="http://www.w3.org/2000/svg">
<path fill-rule="evenodd" clip-rule="evenodd" d="M7.09445 12.8711L9.14425 0.962402L4.0698 11.9255L0.173691 20.323L3.70754e-06 20.6988L0.0260962 21.1034L0.689445 31.8736L0.739796 32.5735L1.30031 33.0269L17.5873 45.7844L17.8163 46.0248C20.2386 48.6135 22.1237 51.7577 23.2153 55.1146C23.6163 56.4065 23.5821 57.815 23.0698 59.0772L23.0579 59.1353L23.046 59.1934L21.3792 64.4417L19.5286 70.2332L23.9778 66.0502C26.0186 64.1476 27.6463 62.0272 28.7732 59.8766C37.577 52.1425 37.3154 37.2149 23.728 31.3253C9.38316 25.0991 11.956 13.7087 11.956 13.7087C11.956 13.7087 8.44598 18.0166 7.15176 20.7058C6.57277 16.5518 7.02382 13.3717 7.08732 12.9241C7.09165 12.8935 7.09418 12.8757 7.09445 12.8711Z" fill="currentColor"/>
</svg>
