<svg width="71" height="141" viewBox="0 0 71 141" fill="none" xmlns="http://www.w3.org/2000/svg">
<path fill-rule="evenodd" clip-rule="evenodd" d="M56.3254 24.2401L52.1531 0L62.4821 22.3154L70.4126 39.4083L70.7661 40.1732L70.713 40.9968L69.3628 62.9194L69.2603 64.344L68.1193 65.267L34.9674 91.2348L34.5011 91.7242C29.5706 96.9934 25.7335 103.393 23.5117 110.226C22.6953 112.856 22.7649 115.723 23.8078 118.292L23.832 118.41L23.8562 118.529L27.249 129.212L31.0157 141L21.9595 132.486C17.8055 128.613 14.4922 124.297 12.1986 119.919C-5.72154 104.177 -5.18907 73.7917 22.468 61.8033C51.6668 49.13 46.4298 25.945 46.4298 25.945C46.4298 25.945 53.5744 34.7137 56.2088 40.1875C57.3873 31.7321 56.4692 25.259 56.3399 24.3478C56.3311 24.2857 56.326 24.2494 56.3254 24.2401Z" fill="currentColor"/>
</svg>
