<svg width="20" height="20" viewBox="0 0 20 20" fill="none" xmlns="http://www.w3.org/2000/svg">
<path d="M8.49805 13.499L11.998 13.499" stroke="currentColor" stroke-linecap="round" stroke-linejoin="round"/>
<path d="M8.24804 13.374C8.24804 12.4765 7.52052 11.749 6.62306 11.749C5.72559 11.749 4.99805 12.4765 4.99805 13.374C4.99805 14.2715 5.72559 14.999 6.62306 14.999C7.52052 14.999 8.24804 14.2715 8.24804 13.374Z" stroke="currentColor" stroke-linecap="round" stroke-linejoin="round"/>
<path d="M14.9981 13.499C14.9981 12.6706 14.3265 11.999 13.4981 11.999C12.6696 11.999 11.998 12.6706 11.998 13.499C11.998 14.3275 12.6696 14.999 13.4981 14.999C14.3265 14.999 14.9981 14.3275 14.9981 13.499Z" stroke="currentColor" stroke-linecap="round" stroke-linejoin="round"/>
<path d="M14.9981 6.49903C14.9981 5.6706 14.3265 4.99904 13.4981 4.99904C12.6696 4.99904 11.998 5.6706 11.998 6.49903C11.998 7.32746 12.6696 7.99902 13.4981 7.99902C14.3265 7.99902 14.9981 7.32746 14.9981 6.49903Z" stroke="currentColor" stroke-linecap="round" stroke-linejoin="round"/>
<path d="M8.49805 13.4326C9.37305 13.2076 10.023 12.4076 10.0147 11.466L10.0064 9.7493C9.99804 8.44096 10.8397 7.32428 12.0147 6.91594" stroke="currentColor" stroke-linecap="round" stroke-linejoin="round"/>
<path d="M18.3327 12.4997L18.3327 7.49967C18.3327 3.33301 16.666 1.66634 12.4993 1.66634L7.49935 1.66634C3.33268 1.66634 1.66601 3.33301 1.66602 7.49967L1.66602 12.4997C1.66602 16.6663 3.33268 18.333 7.49935 18.333L12.4993 18.333C16.666 18.333 18.3327 16.6663 18.3327 12.4997Z" stroke="currentColor" stroke-linecap="round" stroke-linejoin="round"/>
</svg>
