<svg width="205" height="27" viewBox="0 0 205 27" fill="none" xmlns="http://www.w3.org/2000/svg">
<path d="M4.32556 2.66332H9.52204L6.09643 18.8482H11.9316L16.083 23.1504H0L4.32556 2.66332Z" fill="white"/>
<path d="M21.8197 2.66332H35.7254C36.8479 2.99502 37.2349 3.84377 36.8866 5.20958L33.1126 23.1212H28.0032L29.9773 13.7264L24.026 16.4775L22.0229 25.9894L17.5232 23.0626L19.4101 14.0776L31.1095 8.37045L31.3998 6.93635H26.0291L25.3034 10.3314L19.6134 13.141L21.8197 2.66332Z" fill="white"/>
<path d="M43.5673 3.1316L40.4319 18.0872H45.5704L48.7637 2.89746L53.5248 5.79493L50.2153 21.4529C49.5185 22.5846 48.7637 23.1504 47.9509 23.1504H34.2194L39.0965 0L43.5673 3.1316Z" fill="white"/>
<path d="M55.4444 2.66332H60.2054L59.3635 6.64368L64.1246 11.8533L66.0406 2.66332H70.8016L66.5051 23.0919H61.686L62.673 18.4091L57.9701 13.3752L55.9089 23.0919H51.1479L55.4444 2.66332Z" fill="white"/>
<path d="M72.1116 2.63406H85.6689C86.8301 2.63406 87.372 3.54134 87.2946 5.35592L86.0753 11.0338H80.8208L81.6046 7.31683H76.1469L73.7664 18.6725H81.4304L76.4952 23.3553H69.7311C68.6279 23.3553 68.1441 22.5358 68.2796 20.8969L72.1116 2.63406Z" fill="white"/>
<path d="M88.8949 2.63406H93.7721L92.0883 10.5948L86.5435 13.6971L88.8949 2.63406ZM96.7622 13.9312L90.6658 17.297L89.5336 22.6822H84.6565L86.3402 14.7215L97.9235 8.37045L99.1427 2.63406H104.252L99.2589 26.2821L94.8462 22.9456L96.7622 13.9312Z" fill="white"/>
<path d="M111.456 16.174L109.974 23.0204L104.252 26.2526L109.292 2.80448L113.294 7.56463L112.701 10.3855L115.281 12.4129L118.097 10.8262L118.838 7.35894H114.095L109.974 2.62817H123.493C124.58 3.25503 124.965 4.33243 124.649 5.86038L122.989 13.5589L119.194 15.4101L122.07 17.6138L120.825 23.4612L115.666 26.282L116.911 20.4347L111.456 16.174Z" fill="white"/>
<path d="M126.491 2.65756H140.692C141.838 2.99057 142.233 3.8427 141.877 5.21394L138.023 23.1967H132.806L134.822 13.7646L128.744 16.5266L126.698 26.0763L122.103 23.138L124.03 14.1172L135.978 8.38737L136.274 6.94757H130.79L130.048 10.3561L124.238 13.1769L126.491 2.65756Z" fill="white"/>
<path d="M143.571 2.62817H157.416C158.602 2.62817 159.155 3.53907 159.076 5.36085L157.831 11.0613H152.465L153.265 7.32956H147.692L145.261 18.7304H153.088L148.048 23.4318H141.14C140.013 23.4318 139.519 22.6091 139.658 20.9636L143.571 2.62817Z" fill="white"/>
<path d="M160.562 2.62817L205 2.62822L200.773 7.32961L164.831 7.32956L164.357 9.53333L184.995 9.53338L188.049 14.2054L163.349 14.2053L162.4 18.6129L179.102 18.6129L182.452 23.1968L156.145 23.1967L160.562 2.62817Z" fill="white"/>
</svg>
