<svg width="87" height="78" viewBox="0 0 87 78" fill="none" xmlns="http://www.w3.org/2000/svg">
<path d="M30.0812 16.8323L30.0195 16.9447V17.0729V69.1429V69.4432L30.2846 69.5843L43.1531 76.4356L43.3881 76.5607L43.6231 76.4356L56.4916 69.5843L56.7567 69.4432V69.1429V6.11079V5.71482L56.3712 5.62409L38.9067 1.5133L38.5367 1.42621L38.3539 1.75943L30.0812 16.8323Z" stroke="#757391" stroke-opacity="0.3"/>
<path d="M62.9999 56.8896L62.7568 57.0352V57.3185V75.9987V76.881L63.5138 76.4276L86.0338 62.9372L86.2768 62.7916V62.5083V43.8281V42.9458L85.5199 43.3992L62.9999 56.8896Z" stroke="#757391" stroke-opacity="0.3"/>
<path d="M23.7765 56.8896L24.0195 57.0352V57.3185V75.9987V76.881L23.2626 76.4276L0.742607 62.9372L0.499552 62.7916V62.5083V43.8281V42.9458L1.2565 43.3992L23.7765 56.8896Z" stroke="#757391" stroke-opacity="0.3"/>
</svg>
