<svg width="78" height="78" viewBox="0 0 78 78" fill="none" xmlns="http://www.w3.org/2000/svg">
<path d="M32.5495 49.3654L32.4688 49.4896V49.6378V72.9327V73.2561L32.7637 73.3887L39.5791 76.4538L39.7841 76.5461L39.9892 76.4538L46.8046 73.3887L47.0995 73.2561V72.9327V44.7336V44.3232L46.697 44.2432L37.4476 42.4041L37.1153 42.3381L36.9308 42.6221L32.5495 49.3654Z" stroke="#757391" stroke-opacity="0.3"/>
<path d="M11.1296 49.3654L11.0488 49.4896V49.6378V72.9327V73.2561L11.3437 73.3887L18.1591 76.4538L18.3642 76.5461L18.5693 76.4538L25.3847 73.3887L25.6796 73.2561V72.9327V44.7336V44.3232L25.2771 44.2432L16.0277 42.4041L15.6954 42.3381L15.5109 42.6221L11.1296 49.3654Z" stroke="#757391" stroke-opacity="0.3"/>
<path d="M53.9704 49.3654L53.8896 49.4896V49.6378V72.9327V73.2561L54.1846 73.3887L61 76.4538L61.205 76.5461L61.4101 76.4538L68.2255 73.3887L68.5204 73.2561V72.9327V44.7336V44.3232L68.1179 44.2432L58.8685 42.4041L58.5362 42.3381L58.3517 42.6221L53.9704 49.3654Z" stroke="#757391" stroke-opacity="0.3"/>
<mask id="path-4-outside-1_4175_100466" maskUnits="userSpaceOnUse" x="0" y="0" width="78" height="39" fill="black">
<rect fill="white" width="78" height="39"/>
<path fill-rule="evenodd" clip-rule="evenodd" d="M2 26.812L38.9979 2L52.3164 10.9318V26.7028L38.9979 17.2689L10.809 37.2361L2 26.812ZM61.1959 32.9924L67.187 37.2361L75.9958 26.812L61.1959 16.8867V32.9924Z"/>
</mask>
<path d="M38.9979 2L39.5549 1.16947L38.9979 0.795945L38.4409 1.16947L38.9979 2ZM2 26.812L1.44302 25.9815L0.514895 26.6039L1.2362 27.4575L2 26.812ZM52.3164 10.9318H53.3164V10.3984L52.8734 10.1013L52.3164 10.9318ZM52.3164 26.7028L51.7384 27.5189L53.3164 28.6366V26.7028H52.3164ZM38.9979 17.2689L39.5759 16.4529L38.9979 16.0435L38.4199 16.4529L38.9979 17.2689ZM10.809 37.2361L10.0453 37.8816L10.6379 38.5828L11.3871 38.0521L10.809 37.2361ZM61.1959 32.9924H60.1959V33.5096L60.6179 33.8085L61.1959 32.9924ZM67.187 37.2361L66.6089 38.0521L67.3582 38.5828L67.9508 37.8815L67.187 37.2361ZM75.9958 26.812L76.7596 27.4575L77.4809 26.6039L76.5528 25.9815L75.9958 26.812ZM61.1959 16.8867L61.7529 16.0562L60.1959 15.012V16.8867H61.1959ZM38.4409 1.16947L1.44302 25.9815L2.55698 27.6425L39.5549 2.83053L38.4409 1.16947ZM52.8734 10.1013L39.5549 1.16947L38.4409 2.83053L51.7594 11.7624L52.8734 10.1013ZM53.3164 26.7028V10.9318H51.3164V26.7028H53.3164ZM38.4199 18.085L51.7384 27.5189L52.8944 25.8868L39.5759 16.4529L38.4199 18.085ZM11.3871 38.0521L39.5759 18.085L38.4199 16.4529L10.231 36.4201L11.3871 38.0521ZM1.2362 27.4575L10.0453 37.8816L11.5728 36.5906L2.7638 26.1666L1.2362 27.4575ZM60.6179 33.8085L66.6089 38.0521L67.765 36.4201L61.7739 32.1764L60.6179 33.8085ZM67.9508 37.8815L76.7596 27.4575L75.232 26.1666L66.4232 36.5906L67.9508 37.8815ZM76.5528 25.9815L61.7529 16.0562L60.6389 17.7172L75.4388 27.6425L76.5528 25.9815ZM60.1959 16.8867V32.9924H62.1959V16.8867H60.1959Z" fill="#757391" fill-opacity="0.3" mask="url(#path-4-outside-1_4175_100466)"/>
</svg>
