<svg width="15" height="14" viewBox="0 0 15 14" fill="none" xmlns="http://www.w3.org/2000/svg">
<path d="M6.35986 9.01412L7.18882 7.73828L8.93884 8.08624V13.4216L7.64935 14.0015L6.35986 13.4216V9.01412Z" fill="currentColor"/>
<path d="M2.30713 9.01412L3.13608 7.73828L4.8861 8.08624V13.4216L3.59662 14.0015L2.30713 13.4216V9.01412Z" fill="currentColor"/>
<path d="M10.4126 9.01412L11.2416 7.73828L12.9916 8.08624V13.4216L11.7021 14.0015L10.4126 13.4216V9.01412Z" fill="currentColor"/>
<path fill-rule="evenodd" clip-rule="evenodd" d="M0.5 4.69449L7.50009 0L10.02 1.68991V4.67382L7.50009 2.88892L2.16669 6.66675L0.5 4.69449ZM11.7 5.86383L12.8335 6.66675L14.5002 4.69449L11.7 2.81659V5.86383Z" fill="currentColor"/>
</svg>
