<svg width="63" height="75" viewBox="0 0 63 75" fill="none" xmlns="http://www.w3.org/2000/svg">
<path d="M6.24842 67.7083C6.30157 67.8777 6.4406 68.0062 6.61367 68.0459C6.78674 68.0856 6.96789 68.0306 7.08959 67.9013L12.8151 61.8179C12.8512 61.7796 12.881 61.7358 12.9034 61.6882L18.6289 49.5215C18.6823 49.408 18.6911 49.2786 18.6535 49.1589L12.9281 30.9089C12.872 30.7301 12.7206 30.5977 12.5359 30.5659C12.3512 30.534 12.1643 30.6081 12.0515 30.7578L6.32606 38.362C6.31082 38.3822 6.29714 38.4036 6.28514 38.4259L0.559646 49.0718C0.495846 49.1904 0.482607 49.3297 0.522927 49.4583L6.24842 67.7083Z" stroke="currentColor" stroke-linejoin="round"/>
<path d="M17.7303 73.7749C17.6392 73.9555 17.666 74.1733 17.7981 74.3265C17.9302 74.4797 18.1416 74.5382 18.3337 74.4747L55.1404 62.3081C55.2662 62.2665 55.3703 62.1767 55.4299 62.0584L61.5644 49.8918C61.6358 49.7502 61.6358 49.5831 61.5644 49.4416L43.161 12.9416C43.1123 12.845 43.0336 12.7668 42.9367 12.7187L18.3989 0.552042C18.2061 0.456438 17.9737 0.494942 17.822 0.647632C17.6704 0.800322 17.6334 1.03293 17.7303 1.22511L29.9457 25.4523V49.5477L17.7303 73.7749Z" stroke="currentColor" stroke-linejoin="round"/>
</svg>
