<svg width="16" height="15" viewBox="0 0 16 15" fill="none" xmlns="http://www.w3.org/2000/svg">
<path d="M9.15327 2.29957L10.3266 4.60507C10.4866 4.92601 10.9133 5.23384 11.2733 5.29279L13.3999 5.63992C14.7599 5.86261 15.0799 6.83197 14.0999 7.78823L12.4466 9.41256C12.1666 9.68764 12.0133 10.2182 12.0999 10.5981L12.5733 12.6088C12.9466 14.2004 12.0866 14.8161 10.6533 13.9843L8.65994 12.825C8.29994 12.6154 7.70661 12.6154 7.33994 12.825L5.34661 13.9843C3.91994 14.8161 3.05327 14.1938 3.42661 12.6088L3.89994 10.5981C3.98661 10.2182 3.83327 9.68764 3.55327 9.41256L1.89994 7.78823C0.926606 6.83197 1.23994 5.86261 2.59994 5.63992L4.72661 5.29279C5.07994 5.23384 5.50661 4.92601 5.66661 4.60507L6.83994 2.29957C7.47994 1.04858 8.51994 1.04858 9.15327 2.29957Z" stroke="currentColor" stroke-linecap="round" stroke-linejoin="round"/>
</svg>
