<svg width="16" height="16" viewBox="0 0 16 16" fill="none" xmlns="http://www.w3.org/2000/svg">
<path d="M9.15327 2.33977L10.3266 4.68643C10.4866 5.0131 10.9133 5.32643 11.2733 5.38643L13.3999 5.73977C14.7599 5.96643 15.0799 6.9531 14.0999 7.92643L12.4466 9.57976C12.1666 9.85977 12.0133 10.3998 12.0999 10.7864L12.5733 12.8331C12.9466 14.4531 12.0866 15.0798 10.6533 14.2331L8.65994 13.0531C8.29994 12.8398 7.70661 12.8398 7.33994 13.0531L5.34661 14.2331C3.91994 15.0798 3.05327 14.4464 3.42661 12.8331L3.89994 10.7864C3.98661 10.3998 3.83327 9.85977 3.55327 9.57976L1.89994 7.92643C0.926606 6.9531 1.23994 5.96643 2.59994 5.73977L4.72661 5.38643C5.07994 5.32643 5.50661 5.0131 5.66661 4.68643L6.83994 2.33977C7.47994 1.06643 8.51994 1.06643 9.15327 2.33977Z" fill="currentColor" stroke="currentColor" stroke-linecap="round" stroke-linejoin="round"/>
</svg>
