<svg width="20" height="20" viewBox="0 0 20 20" fill="none" xmlns="http://www.w3.org/2000/svg">
<path d="M10.8333 7.5H5.83325" stroke="currentColor" stroke-width="1.5" stroke-linecap="round" stroke-linejoin="round"/>
<path d="M18.3333 9.14165V10.8584C18.3333 11.3167 17.9667 11.6917 17.5 11.7083H15.8667C14.9667 11.7083 14.1417 11.05 14.0667 10.15C14.0167 9.625 14.2167 9.13333 14.5667 8.79167C14.875 8.475 15.3 8.29169 15.7667 8.29169H17.5C17.9667 8.30835 18.3333 8.68332 18.3333 9.14165Z" stroke="currentColor" stroke-width="1.5" stroke-linecap="round" stroke-linejoin="round"/>
<path d="M14.5667 8.79168C14.2167 9.13334 14.0168 9.62502 14.0668 10.15C14.1418 11.05 14.9667 11.7083 15.8667 11.7083H17.5001V12.9167C17.5001 15.4167 15.8334 17.0834 13.3334 17.0834H5.83341C3.33341 17.0834 1.66675 15.4167 1.66675 12.9167V7.08335C1.66675 4.81669 3.03342 3.23335 5.15842 2.96668C5.37508 2.93335 5.60008 2.91669 5.83341 2.91669H13.3334C13.5501 2.91669 13.7584 2.92501 13.9584 2.95834C16.1084 3.20834 17.5001 4.80002 17.5001 7.08335V8.2917H15.7667C15.3001 8.2917 14.8751 8.47501 14.5667 8.79168Z" stroke="currentColor" stroke-width="1.5" stroke-linecap="round" stroke-linejoin="round"/>
</svg>
